<svg xmlns="http://www.w3.org/2000/svg" id="Layer_1" data-name="Layer 1" viewBox="0 0 88 88"><defs><style>      .cls-1 {        fill: #1c4a8d;        stroke-width: 0px;      }    </style></defs><path class="cls-1" d="M56.4,76.3h-22c-1.1,0-2.1-.9-2.1-2.1v-15.5h-15.5c-1.1,0-2.1-.9-2.1-2.1v-22c0-1.1.9-2.1,2.1-2.1h15.5v-15.5c0-1.1.9-2.1,2.1-2.1h22c1.1,0,2.1.9,2.1,2.1v15.5h15.5c1.1,0,2.1.9,2.1,2.1v22c0,1.1-.9,2.1-2.1,2.1h-15.5v15.5c0,1.1-.9,2.1-2.1,2.1ZM36.5,72.1h17.9v-15.5c0-1.1.9-2.1,2.1-2.1h15.5v-17.9h-15.5c-1.1,0-2.1-.9-2.1-2.1v-15.5h-17.9v15.5c0,1.1-.9,2.1-2.1,2.1h-15.5v17.9h15.5c1.1,0,2.1.9,2.1,2.1v15.5Z"></path></svg>